<svg width="512" height="512" viewBox="0 0 512 512" fill="none" xmlns="http://www.w3.org/2000/svg">
<path d="M452.268 307.2V452.264C452.268 480.543 429.348 503.463 401.069 503.463V307.2H452.268Z" fill="#3D7EA6"/>
<path d="M110.941 358.399V503.463C82.6622 503.463 59.7422 480.543 59.7422 452.264V307.2H110.941V358.399Z" fill="#3D7EA6"/>
<path d="M358.403 503.463H110.941V358.399C110.941 311.27 149.144 273.067 196.273 273.067H221.873C240.672 291.917 271.195 291.96 290.045 273.161C290.079 273.127 290.105 273.101 290.139 273.067H315.739C362.868 273.067 401.071 311.27 401.071 358.399V503.463H358.403V503.463Z" fill="#3D7EA6"/>
<path d="M85.3411 136.536V179.202H59.7411H34.1421V136.536H85.3411Z" fill="black"/>
<path d="M401.061 230.392C410.486 230.392 418.127 222.751 418.127 213.326C418.127 203.901 410.486 196.26 401.061 196.26C391.636 196.26 383.995 203.901 383.995 213.326C383.995 222.751 391.636 230.392 401.061 230.392Z" fill="black"/>
<path d="M401.069 230.401C410.498 230.401 418.135 222.764 418.135 213.335C418.135 203.906 410.498 196.269 401.069 196.269C391.64 196.269 384.003 203.906 384.003 213.335C384.028 222.747 391.648 230.367 401.069 230.401ZM469.335 238.934V256H332.804V170.668H469.335V238.934Z" fill="white"/>
<path d="M110.941 179.202V230.401H68.2752L59.7412 179.202H85.3412V136.536H102.407L110.941 179.202Z" fill="white"/>
<path d="M349.785 127.832C359.163 127.781 366.8 135.35 366.851 144.728C366.902 154.106 359.333 161.743 349.955 161.794H332.803V128.003L349.785 127.832Z" fill="#FFDFC4"/>
<path d="M162.14 128.003H179.206V162.136H163.078C154.007 162.307 146.276 155.608 145.158 146.606C144.356 137.168 151.362 128.865 160.799 128.063C161.244 128.02 161.688 128.003 162.14 128.003Z" fill="#FFDFC4"/>
<path d="M110.941 238.934V307.2H59.741V290.134H34.141C20.002 290.134 8.54104 278.674 8.54104 264.534V263.766C8.52404 250.07 19.609 238.951 33.304 238.934C33.33 238.934 33.347 238.934 33.372 238.934H110.941V238.934Z" fill="#FFDFC4"/>
<path d="M478.636 238.934C492.332 238.917 503.451 250.002 503.468 263.697C503.468 263.723 503.468 263.74 503.468 263.765V264.533C503.468 278.672 492.008 290.133 477.868 290.133H452.268V307.2H401.069V256.001H469.335V238.935H478.636V238.934Z" fill="#FFDFC4"/>
<path d="M298.671 115.203C298.671 108.138 292.937 102.403 285.871 102.403C278.805 102.403 273.071 108.137 273.071 115.203C273.071 122.269 278.805 128.003 285.871 128.003C292.937 128.003 298.671 122.268 298.671 115.203ZM226.139 102.403C219.074 102.403 213.339 108.137 213.339 115.203C213.339 122.269 219.073 128.003 226.139 128.003C233.205 128.003 238.939 122.269 238.939 115.203C238.938 108.129 233.204 102.403 226.139 102.403ZM179.206 128.003L213.339 51.204H298.671L332.804 128.003V170.669C332.744 187.087 326.208 202.814 314.628 214.444L290.138 238.934H221.872L197.382 214.614C185.76 202.941 179.232 187.137 179.206 170.668V128.003V128.003Z" fill="#FFDFC4"/>
<path d="M281.604 8.53796C309.883 8.53796 332.803 31.458 332.803 59.737V128.003L298.67 51.204H213.338L179.205 128.003V8.53796H281.604Z" fill="#E6B447"/>
<path d="M221.872 273.067V238.934H290.138V273.067C271.339 291.917 240.816 291.96 221.966 273.161C221.932 273.127 221.898 273.093 221.872 273.067Z" fill="#FFDFC4"/>
<path d="M285.871 128.003C292.94 128.003 298.671 122.272 298.671 115.203C298.671 108.134 292.94 102.403 285.871 102.403C278.802 102.403 273.071 108.134 273.071 115.203C273.071 122.272 278.802 128.003 285.871 128.003Z" fill="black"/>
<path d="M226.139 128.003C233.208 128.003 238.939 122.272 238.939 115.203C238.939 108.134 233.208 102.403 226.139 102.403C219.07 102.403 213.339 108.134 213.339 115.203C213.339 122.272 219.07 128.003 226.139 128.003Z" fill="black"/>
<path d="M409.593 307.191H392.527V358.39H409.593V307.191Z" fill="#E6B447"/>
<path d="M119.465 307.191H102.399V358.39H119.465V307.191Z" fill="#E6B447"/>
<path d="M273.071 179.202H247.471C242.761 179.202 238.938 175.379 238.938 170.669V128.003H256.004V162.136H273.07V179.202H273.071Z" fill="#EBB691"/>
<path d="M162.131 349.857H145.065V503.454H162.131V349.857Z" fill="#E6B447"/>
<path d="M366.927 349.857H349.861V503.454H366.927V349.857Z" fill="#E6B447"/>
<path d="M401.069 238.934C386.93 238.934 375.469 227.474 375.469 213.334C375.469 199.194 386.929 187.734 401.069 187.734C415.209 187.734 426.669 199.194 426.669 213.334C426.669 227.474 415.2 238.934 401.069 238.934ZM401.069 204.801C396.359 204.801 392.536 208.624 392.536 213.334C392.536 218.044 396.359 221.867 401.069 221.867C405.779 221.867 409.602 218.044 409.602 213.334C409.602 208.624 405.779 204.801 401.069 204.801Z" fill="#DDDDDD"/>
<path d="M452.259 145.061H435.193V170.661H452.259V145.061Z" fill="#3D7EA6"/>
<path d="M443.726 187.727H426.66V204.793H443.726V187.727Z" fill="#DDDDDD"/>
<path d="M110.941 238.934H68.2749C64.1109 238.934 60.5519 235.922 59.8609 231.809L52.5139 187.735H34.1419C29.4319 187.735 25.6089 183.912 25.6089 179.202V136.536C25.6089 131.826 29.4319 128.003 34.1419 128.003H102.408C106.461 128.003 109.96 130.853 110.771 134.83L119.304 177.496C119.415 178.059 119.475 178.631 119.475 179.203V230.402C119.474 235.111 115.651 238.934 110.941 238.934ZM75.5019 221.868H102.407V180.055L95.4179 145.069H93.8729V179.202C93.8729 183.912 90.0499 187.735 85.3399 187.735H69.8189L75.5019 221.868ZM42.6749 170.669H76.8079V145.069H42.6749C42.6749 145.069 42.6749 170.669 42.6749 170.669Z" fill="#454545"/>
<path d="M12.3504 220.966L29.4155 212.433L21.7836 197.169L4.71846 205.702L12.3504 220.966Z" fill="#B5B5B5"/>
<path d="M17.067 153.594H0.000976562V170.66H17.067V153.594Z" fill="#B5B5B5"/>
<path d="M21.7924 127.101L29.4243 111.837L12.3592 103.304L4.72725 118.568L21.7924 127.101Z" fill="#B5B5B5"/>
<path d="M256.005 215.084H255.937C244.076 215.11 232.701 210.374 224.364 201.943L236.464 189.911C241.61 195.116 248.624 198.035 255.937 198.018C263.301 198.044 270.367 195.117 275.563 189.894L287.629 201.96C279.258 210.374 267.875 215.101 256.005 215.084Z" fill="#EBB691"/>
<path d="M285.871 128.003C292.94 128.003 298.671 122.272 298.671 115.203C298.671 108.134 292.94 102.403 285.871 102.403C278.802 102.403 273.071 108.134 273.071 115.203C273.071 122.272 278.802 128.003 285.871 128.003Z" fill="black"/>
<path d="M226.139 128.003C233.208 128.003 238.939 122.272 238.939 115.203C238.939 108.134 233.208 102.403 226.139 102.403C219.07 102.403 213.339 108.134 213.339 115.203C213.339 122.272 219.07 128.003 226.139 128.003Z" fill="black"/>
<path d="M34.1421 298.667H51.2081V452.264C51.2421 485.236 77.9681 511.962 110.94 511.996H401.068C434.04 511.962 460.766 485.236 460.8 452.264V298.667H477.866C496.827 298.556 512.11 283.094 511.999 264.133C511.999 264.014 511.999 263.894 511.999 263.766C511.982 245.343 497.057 230.418 478.634 230.401H477.866V170.669C477.866 165.959 474.043 162.136 469.333 162.136H452.267V145.07H435.201V162.136H368.642C378.233 151.845 377.662 135.726 367.371 126.134C362.644 121.731 356.414 119.282 349.955 119.299H349.699L341.336 119.384V59.737C341.302 26.765 314.576 0.0390049 281.604 0.00500488H179.206C174.496 0.00500488 170.673 3.828 170.673 8.538V119.47H162.14C147.958 119.53 136.506 131.084 136.566 145.266C136.566 145.957 136.6 146.648 136.66 147.34C138.153 160.771 149.605 170.866 163.113 170.67H170.673C170.639 189.426 178.088 207.422 191.366 220.675L213.339 242.494V264.535H196.273C165.664 264.569 136.993 279.536 119.474 304.641V238.935C119.431 237.425 118.979 235.948 118.168 234.668C118.979 233.388 119.431 231.912 119.474 230.401V179.202C119.474 178.63 119.414 178.059 119.303 177.495L110.77 134.829C109.959 130.853 106.461 128.002 102.407 128.002H34.1421C29.4321 128.002 25.6091 131.825 25.6091 136.535V179.201C25.6091 183.911 29.4321 187.734 34.1421 187.734H52.5141L59.6221 230.4H33.3741C14.8231 230.511 -0.109897 245.64 0.0011031 264.183C0.0011031 264.302 0.0011031 264.413 0.0011031 264.533C0.0091031 283.384 15.2841 298.667 34.1421 298.667ZM68.2751 452.264V315.733H102.408V494.077C82.5511 489.989 68.3001 472.53 68.2751 452.264ZM298.671 242.467L320.661 220.477C321.932 219.206 323.11 217.849 324.271 216.483V256C324.271 260.71 328.094 264.533 332.804 264.533H392.536V304.639C375.009 279.551 346.337 264.601 315.737 264.576H298.671V242.467V242.467ZM409.602 494.068V315.733H443.735V452.264C443.701 472.522 429.451 489.981 409.602 494.068ZM477.868 255.992V247.459H478.636C487.741 247.561 495.045 255.028 494.943 264.141C494.943 264.269 494.934 264.397 494.934 264.525C494.934 273.954 487.297 281.591 477.868 281.591H452.268C447.558 281.591 443.735 285.414 443.735 290.124V298.657H409.602V264.524H469.334C474.036 264.525 477.859 260.702 477.868 255.992ZM460.801 247.459H341.337V179.193H460.802V247.459H460.801ZM349.87 136.365H349.955C354.623 136.365 358.403 140.145 358.411 144.804C358.411 149.472 354.631 153.252 349.972 153.26H349.963H341.345V136.45L349.87 136.365ZM281.604 17.071C305.156 17.097 324.244 36.185 324.27 59.737V87.794L306.47 47.739C305.096 44.65 302.041 42.662 298.671 42.67H213.339C209.968 42.67 206.905 44.658 205.54 47.739L187.74 87.794V17.071H281.604ZM163.078 153.602C158.41 153.764 154.366 150.411 153.649 145.794C153.308 141.041 156.883 136.902 161.636 136.561C161.815 136.544 161.994 136.544 162.182 136.535H170.715V153.601L163.078 153.602ZM187.739 170.669V129.82L218.877 59.737H293.116L324.271 129.82V170.643C324.177 184.8 318.554 198.35 308.596 208.411L286.606 230.401H225.389L203.442 208.599C193.363 198.547 187.714 184.894 187.739 170.669ZM230.405 247.467H281.604V269.312C266.688 281.429 245.321 281.429 230.405 269.312V247.467V247.467ZM196.273 281.6H218.596C239.963 300.484 272.048 300.484 293.415 281.6H315.738C358.131 281.651 392.485 316.006 392.537 358.399V494.93H366.937V349.866H349.87V494.93H162.14V349.866H145.074V494.93H119.474V358.399C119.516 315.997 153.871 281.643 196.273 281.6ZM93.8741 179.202V145.069H95.4191L102.408 180.055V221.868H75.5021L69.8191 187.735H85.3411C90.0511 187.735 93.8741 183.912 93.8741 179.202ZM42.6751 170.669V145.069H76.8081V170.669H42.6751ZM33.3741 247.467H102.408V298.666H68.2751V290.133C68.2751 285.423 64.4521 281.6 59.7421 281.6H34.1421C24.6021 281.489 16.9561 273.681 17.0671 264.15C17.0671 264.022 17.0671 263.894 17.0761 263.766C17.0841 254.763 24.3711 247.476 33.3741 247.467Z" fill="black"/>
<path d="M238.938 128.003V170.669C238.938 175.379 242.761 179.202 247.471 179.202H273.071V162.136H256.005V128.003C256.005 128.003 238.938 128.003 238.938 128.003Z" fill="black"/>
<path d="M401.069 238.934C415.209 238.934 426.669 227.474 426.669 213.334C426.669 199.194 415.209 187.734 401.069 187.734C386.93 187.734 375.469 199.194 375.469 213.334C375.469 227.474 386.93 238.934 401.069 238.934ZM401.069 204.801C405.779 204.801 409.602 208.624 409.602 213.334C409.602 218.044 405.779 221.867 401.069 221.867C396.359 221.867 392.536 218.044 392.536 213.334C392.536 208.624 396.35 204.801 401.069 204.801Z" fill="#3C597D"/>
<path d="M443.726 187.727H426.66V204.793H443.726V187.727Z" fill="#3C597D"/>
<path d="M12.3504 220.966L29.4155 212.433L21.7836 197.169L4.71846 205.702L12.3504 220.966Z" fill="black"/>
<path d="M17.067 153.594H0.000976562V170.66H17.067V153.594Z" fill="black"/>
<path d="M21.7924 127.101L29.4243 111.837L12.3592 103.304L4.72725 118.568L21.7924 127.101Z" fill="black"/>
<path d="M256.005 215.084C267.892 215.118 279.292 210.391 287.672 201.96L275.606 189.894C270.409 195.116 263.344 198.043 255.98 198.018C248.667 198.035 241.653 195.117 236.507 189.911L224.407 201.943C232.744 210.374 244.119 215.11 255.98 215.084H256.005Z" fill="black"/>
</svg>
