<svg width="512" height="512" viewBox="0 0 512 512" fill="none" xmlns="http://www.w3.org/2000/svg">
<g clip-path="url(#clip0)">
<path d="M358.4 192C377.251 192 392.533 176.718 392.533 157.867C392.533 139.015 377.251 123.733 358.4 123.733C339.549 123.733 324.267 139.015 324.267 157.867C324.267 176.718 339.549 192 358.4 192ZM358.4 140.8C367.826 140.8 375.467 148.441 375.467 157.867C375.467 167.292 367.826 174.933 358.4 174.933C348.974 174.933 341.333 167.292 341.333 157.867C341.333 148.441 348.974 140.8 358.4 140.8Z" fill="#3D7EA6"/>
<path d="M76.8 132.267H42.6666C37.9538 132.267 34.1333 136.087 34.1333 140.8C34.1333 145.513 37.9538 149.333 42.6666 149.333H76.8C81.5128 149.333 85.3333 145.513 85.3333 140.8C85.3333 136.087 81.5128 132.267 76.8 132.267Z" fill="#3D7EA6"/>
<path d="M76.8 166.4H42.6666C37.9538 166.4 34.1333 170.221 34.1333 174.933C34.1333 179.646 37.9538 183.467 42.6666 183.467H76.8C81.5128 183.467 85.3333 179.646 85.3333 174.933C85.3333 170.221 81.5128 166.4 76.8 166.4Z" fill="#3D7EA6"/>
<path d="M426.667 222.089V132.267C426.638 108.714 407.552 89.6283 384 89.6001H312.218L276.864 25.967C272.349 17.8414 263.785 12.8014 254.49 12.8H172.177C162.882 12.8014 154.317 17.8414 149.803 25.967L114.449 89.6001H93.8667V81.0667C93.8667 66.9282 82.4052 55.4667 68.2667 55.4667H59.7333C45.5948 55.4667 34.1333 66.9282 34.1333 81.0667V90.4534C14.2812 94.536 0.0255854 111.999 0 132.267V371.2C0.0282122 394.753 19.1142 413.839 42.6667 413.867H234.889C261.421 472.649 323.595 506.837 387.446 497.752C451.296 488.667 501.467 438.496 510.552 374.646C519.636 310.795 485.449 248.621 426.667 222.089V222.089ZM143.445 72.5334H162.133C166.846 72.5334 170.667 68.7129 170.667 64.0001C170.667 59.2872 166.846 55.4667 162.133 55.4667H152.934L164.693 34.2528C166.203 31.5374 169.07 29.8573 172.177 29.8667H254.49C257.589 29.8683 260.444 31.5507 261.948 34.2614L273.732 55.4667H204.8C200.087 55.4667 196.267 59.2872 196.267 64.0001C196.267 68.7129 200.087 72.5334 204.8 72.5334H283.221L292.693 89.6001H133.973L143.445 72.5334ZM51.2 81.0667C51.2 76.3539 55.0205 72.5334 59.7333 72.5334H68.2667C72.9795 72.5334 76.8 76.3539 76.8 81.0667V89.6001H51.2V81.0667ZM93.8667 396.8V379.733C93.8667 375.021 90.0462 371.2 85.3333 371.2C80.6205 371.2 76.8 375.021 76.8 379.733V396.8H42.6667C28.5282 396.8 17.0667 385.339 17.0667 371.2V132.267C17.0667 118.128 28.5282 106.667 42.6667 106.667H384C398.139 106.667 409.6 118.128 409.6 132.267V215.492C382.694 207.164 353.934 206.926 326.895 214.81C307.995 156.652 248.229 122.156 188.416 134.882C128.604 147.608 88.0572 203.446 94.4694 264.26C100.882 325.075 152.182 371.229 213.333 371.2C216.636 371.2 219.81 371.081 222.908 370.833C223.898 379.636 225.701 388.329 228.292 396.8H93.8667ZM295.253 228.181C288.769 205.593 273.255 186.679 252.373 175.9C231.49 165.122 207.086 163.432 184.917 171.23C180.468 172.79 178.126 177.661 179.686 182.11C181.246 186.559 186.118 188.901 190.566 187.341C209.196 180.774 229.757 182.598 246.939 192.343C264.122 202.088 276.241 218.798 280.166 238.157C253.606 258.038 234.654 286.415 226.466 318.566C197.692 324.306 168.475 310.977 153.95 285.483C139.426 259.989 142.857 228.06 162.466 206.234C164.656 203.993 165.442 200.732 164.513 197.739C163.583 194.747 161.089 192.504 158.015 191.898C154.941 191.291 151.782 192.418 149.786 194.833C125.792 221.113 120.719 259.561 137.075 291.165C153.432 322.769 187.751 340.83 223.061 336.418C222.317 342.175 221.918 347.971 221.867 353.775C219.11 354.005 216.277 354.133 213.333 354.133C160.874 354.166 116.874 314.547 111.424 262.371C105.975 210.195 140.837 162.34 192.171 151.531C243.505 140.722 294.706 170.456 310.758 220.399C305.438 222.679 300.26 225.278 295.253 228.181V228.181ZM366.933 482.133C296.241 482.133 238.933 424.826 238.933 354.133C238.933 283.441 296.241 226.133 366.933 226.133C437.626 226.133 494.933 283.441 494.933 354.133C494.853 424.793 437.593 482.053 366.933 482.133Z" fill="black"/>
<path d="M447.881 311.765L401.4 304.64L380.587 260.489C378.121 255.152 372.778 251.736 366.899 251.736C361.021 251.736 355.678 255.152 353.212 260.489L332.467 304.64L285.986 311.731C280.348 312.597 275.672 316.554 273.886 321.971C272.006 327.498 273.395 333.612 277.478 337.784L311.416 372.489L303.403 421.547C302.401 427.397 304.86 433.3 309.717 436.71C314.405 440.038 320.589 440.37 325.607 437.564L366.933 414.78L408.269 437.581C413.282 440.39 419.466 440.058 424.149 436.728C429.01 433.316 431.469 427.408 430.464 421.555L422.451 372.565L456.397 337.852C460.476 333.681 461.861 327.57 459.981 322.048C458.208 316.614 453.53 312.638 447.881 311.765V311.765ZM409.668 361.199C406.246 364.745 404.697 369.698 405.487 374.562L413.013 420.693L374.144 399.249C369.633 396.744 364.149 396.744 359.637 399.249L320.853 420.693L328.405 374.52C329.196 369.652 327.639 364.697 324.207 361.156L291.84 328.132L336.077 321.391C341.076 320.606 345.357 317.384 347.495 312.798L366.933 271.505L386.355 312.798C388.497 317.389 392.784 320.611 397.79 321.391L442.01 328.132L409.668 361.199Z" fill="#3D7EA6"/>
</g>
<defs>
<clipPath id="clip0">
<rect width="512" height="512" fill="white"/>
</clipPath>
</defs>
</svg>
