<svg width="615" height="615" viewBox="0 0 615 615" fill="none" xmlns="http://www.w3.org/2000/svg">
<g clip-path="url(#clip0)">
<path d="M9.9165 560.752V183.868L148.769 45.0146L307.46 164.03L466.15 45.0146L605.003 183.868V570.673L466.15 431.82L307.46 570.673L148.769 431.82L9.9165 560.752Z" fill="#3D7EA6"/>
<path d="M296.243 283.245C224.842 284.335 168.607 297.13 168.607 312.804C168.607 329.267 230.794 342.558 307.46 342.558C384.126 342.558 446.313 329.267 446.313 312.804C446.313 297.13 390.078 284.339 318.677 283.245C311.912 295.306 307.46 302.883 307.46 302.883C307.46 302.883 303.007 295.306 296.243 283.245Z" fill="#DEDDE0"/>
<path d="M307.46 45.0146C263.661 45.0654 228.166 80.5569 228.115 124.36C228.115 157.773 274.374 244.239 296.243 283.245C303.007 295.306 307.46 302.883 307.46 302.883C307.46 302.883 311.912 295.306 318.677 283.245C340.545 244.239 386.805 157.773 386.805 124.36C386.754 80.5569 351.259 45.0654 307.46 45.0146ZM307.46 164.03C285.549 164.03 267.789 146.271 267.789 124.36C267.789 102.449 285.549 84.6853 307.46 84.6853C329.371 84.6853 347.134 102.449 347.134 124.36C347.134 146.271 329.371 164.03 307.46 164.03Z" fill="white"/>
<path d="M347.134 124.36C347.134 146.271 329.371 164.03 307.46 164.03C285.549 164.03 267.789 146.271 267.789 124.36C267.789 102.449 285.549 84.6853 307.46 84.6853C329.371 84.6853 347.134 102.449 347.134 124.36Z" fill="#3C597D"/>
<path d="M612.014 176.857L473.161 38.0038C469.47 34.3129 463.553 34.1137 459.624 37.5469L392.179 96.5079C376.845 49.7054 326.465 24.1931 279.663 39.5271C252.682 48.3697 231.521 69.5271 222.682 96.5079L155.238 37.5469C151.308 34.1137 145.391 34.3129 141.7 38.0038L2.84722 176.857C1.00761 178.724 -0.0156908 181.247 -6.7847e-05 183.868V570.673C-6.7847e-05 576.149 4.44467 580.589 9.92051 580.589C12.5491 580.585 15.0722 579.543 16.9313 577.683L149.219 445.396L300.965 578.129C304.706 581.41 310.295 581.41 314.037 578.129L465.783 445.396L597.988 577.683C601.863 581.558 608.143 581.554 612.014 577.68C613.873 575.82 614.92 573.301 614.92 570.673V183.868C614.92 181.239 613.873 178.716 612.014 176.857ZM307.46 54.9313C345.787 54.9782 376.841 86.0327 376.884 124.36C376.884 154.211 332.601 238.614 307.46 283.046C282.319 238.634 238.035 154.231 238.035 124.36C238.078 86.0327 269.137 54.9782 307.46 54.9313ZM298.91 307.914C301.687 312.636 307.765 314.21 312.487 311.433C313.939 310.582 315.154 309.367 316.01 307.914C317.337 305.653 320.341 300.505 324.438 293.314C390.594 294.939 428.042 306.207 435.521 312.812C426.913 320.529 380.814 332.649 307.409 332.649C234.005 332.649 187.909 320.537 179.297 312.812C186.827 306.188 224.275 294.959 290.431 293.314C294.567 300.505 297.543 305.653 298.91 307.914ZM595.083 546.73L473.161 424.805C469.466 421.114 463.541 420.919 459.612 424.36L307.46 557.491L155.308 424.36C151.379 420.919 145.454 421.114 141.759 424.805L19.8372 546.73V187.973L149.227 58.591L218.464 119.153C218.354 120.876 218.198 122.602 218.198 124.36C218.198 156.742 255.471 229.877 279.6 273.832C240.414 275.547 158.69 282.741 158.69 312.8C158.69 351.361 292.235 352.475 307.46 352.475C322.684 352.475 456.233 351.361 456.233 312.8C456.233 282.741 374.506 275.547 335.323 273.832C359.453 229.877 396.726 156.742 396.726 124.36C396.726 122.602 396.565 120.876 396.456 119.153L465.693 58.591L595.086 187.973V546.73H595.083Z" fill="#231F20"/>
<path d="M357.051 124.36C357.051 96.9727 334.847 74.7686 307.46 74.7686C280.073 74.7686 257.869 96.9727 257.869 124.36C257.869 151.747 280.073 173.951 307.46 173.951C334.835 173.916 357.016 151.731 357.051 124.36ZM277.706 124.36C277.706 107.928 291.028 94.6058 307.46 94.6058C323.891 94.6058 337.214 107.928 337.214 124.36C337.214 140.791 323.891 154.114 307.46 154.114C291.028 154.114 277.706 140.791 277.706 124.36Z" fill="#022840"/>
</g>
<defs>
<clipPath id="clip0">
<rect width="615" height="615" fill="white"/>
</clipPath>
</defs>
</svg>
